<svg viewBox="0 0 1400 1000" xmlns="http://www.w3.org/2000/svg">
  <defs>
    <!-- Terrain Gradients with perspective depth -->
    <linearGradient id="roughGrad" x1="0%" y1="100%" x2="0%" y2="0%">
      <stop offset="0%" style="stop-color:#2d4a26;stop-opacity:1" />
      <stop offset="50%" style="stop-color:#3a5c2d;stop-opacity:1" />
      <stop offset="100%" style="stop-color:#4a6c3d;stop-opacity:0.9" />
    </linearGradient>
    
    <linearGradient id="fairwayGrad" x1="0%" y1="100%" x2="0%" y2="0%">
      <stop offset="0%" style="stop-color:#4a7c3d;stop-opacity:1" />
      <stop offset="50%" style="stop-color:#5a8c4d;stop-opacity:1" />
      <stop offset="100%" style="stop-color:#6b9d5b;stop-opacity:0.9" />
    </linearGradient>
    
    <linearGradient id="approachGrad" x1="0%" y1="100%" x2="0%" y2="0%">
      <stop offset="0%" style="stop-color:#6ba950;stop-opacity:1" />
      <stop offset="50%" style="stop-color:#7bb960;stop-opacity:1" />
      <stop offset="100%" style="stop-color:#8bc970;stop-opacity:0.9" />
    </linearGradient>
    
    <linearGradient id="greenGrad" x1="0%" y1="100%" x2="0%" y2="0%">
      <stop offset="0%" style="stop-color:#7bc96b;stop-opacity:1" />
      <stop offset="50%" style="stop-color:#8bd97b;stop-opacity:1" />
      <stop offset="100%" style="stop-color:#9be98b;stop-opacity:0.95" />
    </linearGradient>
    
    <!-- Three-domain color scheme -->
    <linearGradient id="golfAnnotation" x1="0%" y1="0%" x2="100%" y2="0%">
      <stop offset="0%" style="stop-color:#4a7c3d;stop-opacity:0.9" />
      <stop offset="100%" style="stop-color:#2d4a26;stop-opacity:0.9" />
    </linearGradient>
    
    <linearGradient id="mathAnnotation" x1="0%" y1="0%" x2="100%" y2="0%">
      <stop offset="0%" style="stop-color:#3d5a7c;stop-opacity:0.9" />
      <stop offset="100%" style="stop-color:#1a3a5a;stop-opacity:0.9" />
    </linearGradient>
    
    <linearGradient id="llmAnnotation" x1="0%" y1="0%" x2="100%" y2="0%">
      <stop offset="0%" style="stop-color:#7c3d5a;stop-opacity:0.9" />
      <stop offset="100%" style="stop-color:#4a1a3a;stop-opacity:0.9" />
    </linearGradient>
    
    <!-- Filters -->
    <filter id="shadow">
      <feGaussianBlur in="SourceAlpha" stdDeviation="2"/>
      <feOffset dx="1" dy="1" result="offsetblur"/>
      <feComponentTransfer>
        <feFuncA type="linear" slope="0.3"/>
      </feComponentTransfer>
      <feMerge>
        <feMergeNode/>
        <feMergeNode in="SourceGraphic"/>
      </feMerge>
    </filter>
    
    <filter id="glow">
      <feGaussianBlur stdDeviation="2" result="coloredBlur"/>
      <feMerge>
        <feMergeNode in="coloredBlur"/>
        <feMergeNode in="SourceGraphic"/>
      </feMerge>
    </filter>
  </defs>
  
  <!-- Title -->
  <text x="700" y="25" font-family="Arial" font-size="24" font-weight="bold" text-anchor="middle" fill="#1a1a1a">
    Hyperdimensional Golf: Integrated Ontological View
  </text>
  <text x="700" y="43" font-family="Arial" font-size="10" text-anchor="middle" fill="#666">
    Top-Down Perspective with Spatially-Embedded Three-Domain Annotations
  </text>
  
  <!-- Main Course with Perspective Transform -->
  <g id="course" transform="translate(200, 60)">
    
    <!-- ROUGH LAYER - Bottom/Near (Library of Babel) -->
    <path d="M 200 880
             Q 150 800, 180 720
             Q 140 640, 170 560
             Q 150 480, 180 400
             Q 170 320, 200 240
             Q 210 160, 230 80
             L 270 80
             Q 290 160, 300 240
             Q 330 320, 320 400
             Q 350 480, 330 560
             Q 360 640, 340 720
             Q 370 800, 350 880
             Z" 
          fill="url(#roughGrad)" 
          stroke="#2a3a22" 
          stroke-width="2"
          opacity="0.95"/>
    
    <!-- Rough undulation lines -->
    <path d="M 195 800 Q 250 795, 305 800" stroke="#1a2a12" stroke-width="1" opacity="0.4" fill="none"/>
    <path d="M 185 680 Q 250 675, 315 680" stroke="#1a2a12" stroke-width="1" opacity="0.4" fill="none"/>
    <path d="M 175 560 Q 250 555, 325 560" stroke="#1a2a12" stroke-width="1" opacity="0.4" fill="none"/>
    
    <!-- GOLF annotation for Rough (left side) -->
    <g id="roughGolfAnnotation" opacity="0.95">
      <path d="M 50 720 L 140 720 L 145 800 L 55 800 Z" 
            fill="url(#golfAnnotation)" stroke="#2d4a26" stroke-width="1.5" filter="url(#shadow)"/>
      <text x="97" y="740" font-family="Arial" font-size="9" font-weight="bold" text-anchor="middle" fill="#ffffff">
        The Rough
      </text>
      <text x="97" y="755" font-family="Arial" font-size="7" text-anchor="middle" fill="#e0f0e0">
        Wide, unkempt
      </text>
      <text x="97" y="768" font-family="Arial" font-size="6" text-anchor="middle" fill="#d0e0d0">
        High variance
      </text>
      <text x="97" y="780" font-family="Arial" font-size="6" text-anchor="middle" fill="#d0e0d0">
        Undulation: 15-30
      </text>
    </g>
    
    <!-- MATH annotation for Rough (right side) -->
    <g id="roughMathAnnotation" opacity="0.95">
      <path d="M 400 720 L 490 720 L 495 800 L 405 800 Z" 
            fill="url(#mathAnnotation)" stroke="#1a3a5a" stroke-width="1.5" filter="url(#shadow)"/>
      <text x="447" y="738" font-family="Arial" font-size="8" font-weight="bold" text-anchor="middle" fill="#ffffff">
        T⁻¹([0, 0.6])
      </text>
      <text x="447" y="752" font-family="Arial" font-size="6" text-anchor="middle" fill="#d0e0f0">
        Flattened space
      </text>
      <text x="447" y="763" font-family="Arial" font-size="6" text-anchor="middle" fill="#d0e0f0">
        Var[T(σ)] &gt; thresh
      </text>
      <text x="447" y="774" font-family="Arial" font-size="6" text-anchor="middle" fill="#d0e0f0">
        Exp. branching
      </text>
      <text x="447" y="785" font-family="Arial" font-size="6" text-anchor="middle" fill="#d0e0f0">
        Library of Babel
      </text>
    </g>
    
    <!-- LLM annotation for Rough (far right) -->
    <g id="roughLLMAnnotation" opacity="0.95">
      <path d="M 545 740 L 635 740 L 640 800 L 550 800 Z" 
            fill="url(#llmAnnotation)" stroke="#4a1a3a" stroke-width="1.5" filter="url(#shadow)"/>
      <text x="592" y="757" font-family="Arial" font-size="8" font-weight="bold" text-anchor="middle" fill="#ffffff">
        Underspecified
      </text>
      <text x="592" y="770" font-family="Arial" font-size="6" text-anchor="middle" fill="#f0d0e0">
        Broad prompts
      </text>
      <text x="592" y="781" font-family="Arial" font-size="6" text-anchor="middle" fill="#f0d0e0">
        "Make something..."
      </text>
      <text x="592" y="792" font-family="Arial" font-size="6" text-anchor="middle" fill="#f0d0e0">
        Exploration phase
      </text>
    </g>
    
    <!-- FAIRWAY LAYER -->
    <path d="M 210 850
             Q 170 770, 190 690
             Q 160 610, 185 530
             Q 170 450, 195 370
             Q 185 290, 210 210
             Q 220 140, 240 95
             L 260 95
             Q 280 140, 290 210
             Q 315 290, 305 370
             Q 330 450, 315 530
             Q 340 610, 320 690
             Q 350 770, 340 850
             Z"
          fill="url(#fairwayGrad)"
          stroke="#3a4a2d"
          stroke-width="1.5"
          opacity="0.95"/>
    
    <!-- Fairway undulation (smoother) -->
    <path d="M 205 750 Q 250 752, 295 750" stroke="#2a3a1d" stroke-width="0.8" opacity="0.3" fill="none"/>
    <path d="M 195 580 Q 250 578, 305 580" stroke="#2a3a1d" stroke-width="0.8" opacity="0.3" fill="none"/>
    
    <!-- GOLF annotation for Fairway -->
    <g id="fairwayGolfAnnotation" opacity="0.95">
      <path d="M 50 500 L 140 500 L 145 565 L 55 565 Z" 
            fill="url(#golfAnnotation)" stroke="#2d4a26" stroke-width="1.5" filter="url(#shadow)"/>
      <text x="97" y="517" font-family="Arial" font-size="9" font-weight="bold" text-anchor="middle" fill="#ffffff">
        The Fairway
      </text>
      <text x="97" y="530" font-family="Arial" font-size="7" text-anchor="middle" fill="#e0f0e0">
        Maintained path
      </text>
      <text x="97" y="542" font-family="Arial" font-size="6" text-anchor="middle" fill="#d0e0d0">
        Moderate variance
      </text>
      <text x="97" y="553" font-family="Arial" font-size="6" text-anchor="middle" fill="#d0e0d0">
        Undulation: 5-12
      </text>
    </g>
    
    <!-- MATH annotation for Fairway -->
    <g id="fairwayMathAnnotation" opacity="0.95">
      <path d="M 400 500 L 490 500 L 495 565 L 405 565 Z" 
            fill="url(#mathAnnotation)" stroke="#1a3a5a" stroke-width="1.5" filter="url(#shadow)"/>
      <text x="447" y="515" font-family="Arial" font-size="8" font-weight="bold" text-anchor="middle" fill="#ffffff">
        Manifold M ⊂ S
      </text>
      <text x="447" y="528" font-family="Arial" font-size="6" text-anchor="middle" fill="#d0e0f0">
        Plausible paths
      </text>
      <text x="447" y="539" font-family="Arial" font-size="6" text-anchor="middle" fill="#d0e0f0">
        Conf. ∈ [0.6, 0.8]
      </text>
      <text x="447" y="550" font-family="Arial" font-size="6" text-anchor="middle" fill="#d0e0f0">
        Geodesic approx.
      </text>
    </g>
    
    <!-- LLM annotation for Fairway -->
    <g id="fairwayLLMAnnotation" opacity="0.95">
      <path d="M 545 510 L 635 510 L 640 565 L 550 565 Z" 
            fill="url(#llmAnnotation)" stroke="#4a1a3a" stroke-width="1.5" filter="url(#shadow)"/>
      <text x="592" y="525" font-family="Arial" font-size="8" font-weight="bold" text-anchor="middle" fill="#ffffff">
        Iterative Zone
      </text>
      <text x="592" y="537" font-family="Arial" font-size="6" text-anchor="middle" fill="#f0d0e0">
        Adding constraints
      </text>
      <text x="592" y="548" font-family="Arial" font-size="6" text-anchor="middle" fill="#f0d0e0">
        "React component..."
      </text>
      <text x="592" y="559" font-family="Arial" font-size="6" text-anchor="middle" fill="#f0d0e0">
        Refinement phase
      </text>
    </g>
    
    <!-- APPROACH LAYER -->
    <path d="M 220 700
             Q 195 620, 210 540
             Q 195 460, 215 380
             Q 205 300, 225 220
             Q 230 160, 240 110
             L 260 110
             Q 270 160, 275 220
             Q 295 300, 285 380
             Q 305 460, 290 540
             Q 310 620, 295 700
             Z"
          fill="url(#approachGrad)"
          stroke="#4a5a3d"
          stroke-width="1.2"
          opacity="0.95"/>
    
    <!-- Approach undulation (very smooth) -->
    <path d="M 223 600 Q 250 601, 277 600" stroke="#3a4a2d" stroke-width="0.6" opacity="0.25" fill="none"/>
    <path d="M 218 420 Q 250 419, 282 420" stroke="#3a4a2d" stroke-width="0.6" opacity="0.25" fill="none"/>
    
    <!-- GOLF annotation for Approach -->
    <g id="approachGolfAnnotation" opacity="0.95">
      <path d="M 50 330 L 140 330 L 145 385 L 55 385 Z" 
            fill="url(#golfAnnotation)" stroke="#2d4a26" stroke-width="1.5" filter="url(#shadow)"/>
      <text x="97" y="345" font-family="Arial" font-size="9" font-weight="bold" text-anchor="middle" fill="#ffffff">
        The Approach
      </text>
      <text x="97" y="357" font-family="Arial" font-size="7" text-anchor="middle" fill="#e0f0e0">
        Near green
      </text>
      <text x="97" y="368" font-family="Arial" font-size="6" text-anchor="middle" fill="#d0e0d0">
        Low variance
      </text>
      <text x="97" y="378" font-family="Arial" font-size="6" text-anchor="middle" fill="#d0e0d0">
        Undulation: 2-6
      </text>
    </g>
    
    <!-- MATH annotation for Approach -->
    <g id="approachMathAnnotation" opacity="0.95">
      <path d="M 400 330 L 490 330 L 495 385 L 405 385 Z" 
            fill="url(#mathAnnotation)" stroke="#1a3a5a" stroke-width="1.5" filter="url(#shadow)"/>
      <text x="447" y="345" font-family="Arial" font-size="8" font-weight="bold" text-anchor="middle" fill="#ffffff">
        d(σ, g) &lt; δ
      </text>
      <text x="447" y="357" font-family="Arial" font-size="6" text-anchor="middle" fill="#d0e0f0">
        Near-goal region
      </text>
      <text x="447" y="368" font-family="Arial" font-size="6" text-anchor="middle" fill="#d0e0f0">
        Confidence &gt; 0.8
      </text>
      <text x="447" y="378" font-family="Arial" font-size="6" text-anchor="middle" fill="#d0e0f0">
        Minimal Var[T(σ)]
      </text>
    </g>
    
    <!-- LLM annotation for Approach -->
    <g id="approachLLMAnnotation" opacity="0.95">
      <path d="M 545 340 L 635 340 L 640 385 L 550 385 Z" 
            fill="url(#llmAnnotation)" stroke="#4a1a3a" stroke-width="1.5" filter="url(#shadow)"/>
      <text x="592" y="355" font-family="Arial" font-size="8" font-weight="bold" text-anchor="middle" fill="#ffffff">
        Near-Convergence
      </text>
      <text x="592" y="366" font-family="Arial" font-size="6" text-anchor="middle" fill="#f0d0e0">
        Precise refinement
      </text>
      <text x="592" y="377" font-family="Arial" font-size="6" text-anchor="middle" fill="#f0d0e0">
        "Blue line, 14px..."
      </text>
    </g>
    
    <!-- GREEN LAYER -->
    <ellipse cx="250" cy="95" rx="32" ry="16" 
             fill="url(#greenGrad)" 
             stroke="#5a6a4d" 
             stroke-width="1.2"
             opacity="0.98"/>
    
    <!-- GOLF annotation for Green -->
    <g id="greenGolfAnnotation" opacity="0.95">
      <path d="M 50 170 L 140 170 L 145 220 L 55 220 Z" 
            fill="url(#golfAnnotation)" stroke="#2d4a26" stroke-width="1.5" filter="url(#shadow)"/>
      <text x="97" y="184" font-family="Arial" font-size="9" font-weight="bold" text-anchor="middle" fill="#ffffff">
        The Green
      </text>
      <text x="97" y="196" font-family="Arial" font-size="7" text-anchor="middle" fill="#e0f0e0">
        Smooth surface
      </text>
      <text x="97" y="207" font-family="Arial" font-size="6" text-anchor="middle" fill="#d0e0d0">
        Undulation: &lt;2
      </text>
    </g>
    
    <!-- MATH annotation for Green -->
    <g id="greenMathAnnotation" opacity="0.95">
      <path d="M 400 170 L 490 170 L 495 220 L 405 220 Z" 
            fill="url(#mathAnnotation)" stroke="#1a3a5a" stroke-width="1.5" filter="url(#shadow)"/>
      <text x="447" y="182" font-family="Arial" font-size="8" font-weight="bold" text-anchor="middle" fill="#ffffff">
        G_ε = {σ: d&lt;ε}
      </text>
      <text x="447" y="194" font-family="Arial" font-size="6" text-anchor="middle" fill="#d0e0f0">
        ε-ball around g
      </text>
      <text x="447" y="205" font-family="Arial" font-size="6" text-anchor="middle" fill="#d0e0f0">
        Confidence → 0.99
      </text>
      <text x="447" y="215" font-family="Arial" font-size="6" text-anchor="middle" fill="#d0e0f0">
        Convergence zone
      </text>
    </g>
    
    <!-- LLM annotation for Green -->
    <g id="greenLLMAnnotation" opacity="0.95">
      <path d="M 545 180 L 635 180 L 640 220 L 550 220 Z" 
            fill="url(#llmAnnotation)" stroke="#4a1a3a" stroke-width="1.5" filter="url(#shadow)"/>
      <text x="592" y="193" font-family="Arial" font-size="8" font-weight="bold" text-anchor="middle" fill="#ffffff">
        Final Polish
      </text>
      <text x="592" y="204" font-family="Arial" font-size="6" text-anchor="middle" fill="#f0d0e0">
        "Adjust padding..."
      </text>
      <text x="592" y="214" font-family="Arial" font-size="6" text-anchor="middle" fill="#f0d0e0">
        Minimal changes
      </text>
    </g>
    
    <!-- THE HOLE -->
    <circle cx="250" cy="95" r="5" fill="#0a0a0a" stroke="#1a1a1a" stroke-width="0.8"/>
    
    <!-- Flag -->
    <line x1="250" y1="95" x2="250" y2="65" stroke="#c41e3a" stroke-width="2"/>
    <path d="M 250 65 L 268 73 L 250 78 Z" fill="#c41e3a"/>
    
    <!-- GOAL annotation (centered above) -->
    <g id="holeAnnotation" opacity="0.95">
      <rect x="170" y="20" width="160" height="30" rx="4" 
            fill="#ffffff" stroke="#666" stroke-width="1.5" filter="url(#shadow)"/>
      <text x="250" y="33" font-family="Arial" font-size="8" font-weight="bold" text-anchor="middle" fill="#333">
        GOAL: Acceptable Solution
      </text>
      <text x="250" y="44" font-family="Arial" font-size="6" text-anchor="middle" fill="#666">
        σ ∈ G_ε | "This is what I wanted"
      </text>
    </g>
    
    <!-- TEE BOX -->
    <rect x="240" y="870" width="20" height="18" rx="2" 
          fill="#7bc96b" 
          stroke="#5a8a4d" 
          stroke-width="1.5"/>
    
    <!-- TEE annotation (centered below) -->
    <g id="teeAnnotation" opacity="0.95">
      <rect x="170" y="905" width="160" height="30" rx="4" 
            fill="#ffffff" stroke="#666" stroke-width="1.5" filter="url(#shadow)"/>
      <text x="250" y="918" font-family="Arial" font-size="8" font-weight="bold" text-anchor="middle" fill="#333">
        TEE: Initial State σ₀
      </text>
      <text x="250" y="929" font-family="Arial" font-size="6" text-anchor="middle" fill="#666">
        Underspecified prompt in ℝⁿ
      </text>
    </g>
    
    <!-- SHOT TRAJECTORIES with inline annotations -->
    
    <!-- Shot 1: Driver -->
    <path d="M 250 865
             Q 230 780, 220 695
             Q 215 650, 218 605
             C 220 565, 223 525, 225 485"
          stroke="#ff4444" 
          stroke-width="2.5" 
          stroke-dasharray="8,4"
          fill="none"
          opacity="0.8"
          filter="url(#shadow)"/>
    <circle cx="225" cy="485" r="6" fill="#ff4444" stroke="#fff" stroke-width="1.5"/>
    
    <!-- Shot 1 inline annotation -->
    <rect x="95" y="660" width="95" height="32" rx="3" fill="#ff4444" opacity="0.9" filter="url(#shadow)"/>
    <text x="142" y="673" font-family="Arial" font-size="7" font-weight="bold" text-anchor="middle" fill="#fff">
      Shot 1: f₁(σ₀→σ₁)
    </text>
    <text x="142" y="683" font-family="Arial" font-size="6" text-anchor="middle" fill="#fff">
      Driver | Large d, High Var
    </text>
    
    <!-- Shot 2: Iron -->
    <path d="M 225 485
             Q 235 420, 240 355
             Q 243 310, 245 265"
          stroke="#ff8833"
          stroke-width="2.5"
          stroke-dasharray="8,4"
          fill="none"
          opacity="0.8"
          filter="url(#shadow)"/>
    <circle cx="245" cy="265" r="6" fill="#ff8833" stroke="#fff" stroke-width="1.5"/>
    
    <!-- Shot 2 inline annotation -->
    <rect x="105" y="360" width="95" height="32" rx="3" fill="#ff8833" opacity="0.9" filter="url(#shadow)"/>
    <text x="152" y="373" font-family="Arial" font-size="7" font-weight="bold" text-anchor="middle" fill="#fff">
      Shot 2: f₂(σ₁→σ₂)
    </text>
    <text x="152" y="383" font-family="Arial" font-size="6" text-anchor="middle" fill="#fff">
      Iron | Med. d, Mod. Var
    </text>
    
    <!-- Shot 3: Wedge -->
    <path d="M 245 265
             Q 248 210, 249 155
             Q 250 125, 250 105"
          stroke="#ffbb44"
          stroke-width="2.5"
          stroke-dasharray="8,4"
          fill="none"
          opacity="0.8"
          filter="url(#shadow)"/>
    <circle cx="250" cy="105" r="6" fill="#ffbb44" stroke="#fff" stroke-width="1.5"/>
    
    <!-- Shot 3 inline annotation -->
    <rect x="105" y="180" width="95" height="32" rx="3" fill="#cc9933" opacity="0.9" filter="url(#shadow)"/>
    <text x="152" y="193" font-family="Arial" font-size="7" font-weight="bold" text-anchor="middle" fill="#fff">
      Shot 3: f₃(σ₂→σ₃)
    </text>
    <text x="152" y="203" font-family="Arial" font-size="6" text-anchor="middle" fill="#fff">
      Wedge | Small d, Low Var
    </text>
    
    <!-- Shot 4: Putter -->
    <path d="M 250 105
             Q 250 100, 250 96"
          stroke="#66dd66"
          stroke-width="2.5"
          stroke-dasharray="6,3"
          fill="none"
          opacity="0.9"
          filter="url(#shadow)"/>
    <circle cx="250" cy="96" r="5" fill="#66dd66" stroke="#fff" stroke-width="1.5"/>
    
    <!-- Shot 4 inline annotation -->
    <rect x="300" y="90" width="85" height="22" rx="3" fill="#44aa44" opacity="0.9" filter="url(#shadow)"/>
    <text x="342" y="100" font-family="Arial" font-size="7" font-weight="bold" text-anchor="middle" fill="#fff">
      Shot 4: f₄(σ₃→g)
    </text>
    <text x="342" y="108" font-family="Arial" font-size="6" text-anchor="middle" fill="#fff">
      Putter | Converged!
    </text>
  </g>
  
  <!-- Legend: Three-Domain Color Key -->
  <g id="legend" transform="translate(50, 945)">
    <text x="0" y="0" font-family="Arial" font-size="9" font-weight="bold" fill="#333">
      Three-Domain Ontology:
    </text>
    
    <rect x="110" y="-8" width="60" height="12" rx="2" fill="url(#golfAnnotation)" stroke="#2d4a26" stroke-width="1"/>
    <text x="140" y="1" font-family="Arial" font-size="7" text-anchor="middle" fill="#fff">Golf</text>
    
    <rect x="180" y="-8" width="60" height="12" rx="2" fill="url(#mathAnnotation)" stroke="#1a3a5a" stroke-width="1"/>
    <text x="210" y="1" font-family="Arial" font-size="7" text-anchor="middle" fill="#fff">Math</text>
    
    <rect x="250" y="-8" width="60" height="12" rx="2" fill="url(#llmAnnotation)" stroke="#4a1a3a" stroke-width="1"/>
    <text x="280" y="1" font-family="Arial" font-size="7" text-anchor="middle" fill="#fff">LLM</text>
    
    <text x="330" y="1" font-family="Arial" font-size="7" fill="#666" font-style="italic">
      Annotations spatially positioned at each terrain layer
    </text>
  </g>
  
  <!-- Bottom insight -->
  <rect x="700" y="945" width="650" height="45" rx="5" fill="#f0f8ff" stroke="#3d5a7c" stroke-width="1.5"/>
  <text x="1025" y="962" font-family="Arial" font-size="9" font-weight="bold" text-anchor="middle" fill="#1a3a5a">
    Spatial Integration Principle
  </text>
  <text x="1025" y="975" font-family="Arial" font-size="7" text-anchor="middle" fill="#2a4a6a">
    Each terrain layer embeds its three-domain ontology locally: Golf metaphor (left),
  </text>
  <text x="1025" y="985" font-family="Arial" font-size="7" text-anchor="middle" fill="#2a4a6a">
    Mathematical formalism (center), and LLM implementation (right) converge at goal g.
  </text>
</svg>


